<svg xmlns="http://www.w3.org/2000/svg" viewBox="0 0 200 200" width="200" height="200">
  
  <g stroke="currentColor" stroke-width="5.5" stroke-linecap="round">
    <line x1="100" y1="60" x2="100" y2="12" transform="rotate(0 100 100)"></line>
    <line x1="100" y1="60" x2="100" y2="12" transform="rotate(30 100 100)"></line>
    <line x1="100" y1="60" x2="100" y2="12" transform="rotate(60 100 100)"></line>
    <line x1="100" y1="60" x2="100" y2="12" transform="rotate(90 100 100)"></line>
    <line x1="100" y1="60" x2="100" y2="12" transform="rotate(120 100 100)"></line>
    <line x1="100" y1="60" x2="100" y2="12" transform="rotate(150 100 100)"></line>
    <line x1="100" y1="60" x2="100" y2="12" transform="rotate(180 100 100)"></line>
    <line x1="100" y1="60" x2="100" y2="12" transform="rotate(210 100 100)"></line>
    <line x1="100" y1="60" x2="100" y2="12" transform="rotate(240 100 100)"></line>
    <line x1="100" y1="60" x2="100" y2="12" transform="rotate(270 100 100)"></line>
    <line x1="100" y1="60" x2="100" y2="12" transform="rotate(300 100 100)"></line>
    <line x1="100" y1="60" x2="100" y2="12" transform="rotate(330 100 100)"></line>
    <line x1="100" y1="60" x2="100" y2="36" transform="rotate(15 100 100)"></line>
    <line x1="100" y1="60" x2="100" y2="36" transform="rotate(45 100 100)"></line>
    <line x1="100" y1="60" x2="100" y2="36" transform="rotate(75 100 100)"></line>
    <line x1="100" y1="60" x2="100" y2="36" transform="rotate(105 100 100)"></line>
    <line x1="100" y1="60" x2="100" y2="36" transform="rotate(135 100 100)"></line>
    <line x1="100" y1="60" x2="100" y2="36" transform="rotate(165 100 100)"></line>
    <line x1="100" y1="60" x2="100" y2="36" transform="rotate(195 100 100)"></line>
    <line x1="100" y1="60" x2="100" y2="36" transform="rotate(225 100 100)"></line>
    <line x1="100" y1="60" x2="100" y2="36" transform="rotate(255 100 100)"></line>
    <line x1="100" y1="60" x2="100" y2="36" transform="rotate(285 100 100)"></line>
    <line x1="100" y1="60" x2="100" y2="36" transform="rotate(315 100 100)"></line>
    <line x1="100" y1="60" x2="100" y2="36" transform="rotate(345 100 100)"></line>
  </g>
  <path d="M82,116 L84,84 L100,106 L116,84 L118,116" fill="none" stroke="currentColor" stroke-width="6.5" stroke-linejoin="miter" stroke-linecap="butt" transform="translate(100 100) scale(0.82) translate(-100 -100)"></path>
</svg>
